HIERARCHY
ROOT Hips
{
	OFFSET 0.000000 0.000000 0.000000
	CHANNELS 6 Xposition Yposition Zposition Zrotation Yrotation Xrotation 
	JOINT LHipJoint
	{
		OFFSET 0.000000 0.000000 0.000000
		CHANNELS 3 Zrotation Yrotation Xrotation
		JOINT LeftUpLeg
		{
			OFFSET 1.363060 -1.794630 0.839290
			CHANNELS 3 Zrotation Yrotation Xrotation
			JOINT LeftLeg
			{
				OFFSET 2.448110 -6.726130 0.000000
				CHANNELS 3 Zrotation Yrotation Xrotation
				JOINT LeftFoot
				{
					OFFSET 2.562200 -7.039590 0.000000
					CHANNELS 3 Zrotation Yrotation Xrotation
					JOINT LeftToeBase
					{
						OFFSET 0.157640 -0.433110 2.322550
						CHANNELS 3 Zrotation Yrotation Xrotation
						End Site
						{
							OFFSET 0.000000 0.000000 0.000000
						}
					}
				}
			}
		}
	}
	JOINT RHipJoint
	{
		OFFSET 0.000000 0.000000 0.000000
		CHANNELS 3 Zrotation Yrotation Xrotation
		JOINT RightUpLeg
		{
			OFFSET -1.305520 -1.794630 0.839290
			CHANNELS 3 Zrotation Yrotation Xrotation
			JOINT RightLeg
			{
				OFFSET -2.542530 -6.985550 0.000000
				CHANNELS 3 Zrotation Yrotation Xrotation
				JOINT RightFoot
				{
					OFFSET -2.568260 -7.056230 0.000000
					CHANNELS 3 Zrotation Yrotation Xrotation
					JOINT RightToeBase
					{
						OFFSET -0.164730 -0.452590 2.363150
						CHANNELS 3 Zrotation Yrotation Xrotation
						End Site
						{
							OFFSET 0.000000 0.000000 0.000000
						}
					}
				}
			}
		}
	}
	JOINT LowerBack
	{
		OFFSET 0.000000 0.000000 0.000000
		CHANNELS 3 Zrotation Yrotation Xrotation
		JOINT Spine
		{
			OFFSET 0.028270 2.035590 -0.193380
			CHANNELS 3 Zrotation Yrotation Xrotation
			JOINT Spine1
			{
				OFFSET 0.056720 2.048850 -0.042750
				CHANNELS 3 Zrotation Yrotation Xrotation
				JOINT Neck
				{
					OFFSET 0.000000 0.000000 0.000000
					CHANNELS 3 Zrotation Yrotation Xrotation
					JOINT Neck1
					{
						OFFSET -0.054170 1.746240 0.172020
						CHANNELS 3 Zrotation Yrotation Xrotation
						JOINT Head
						{
							OFFSET 0.104070 1.761360 -0.123970
							CHANNELS 3 Zrotation Yrotation Xrotation
							End Site
							{
								OFFSET 0.000000 0.000000 0.000000
							}
						}
					}
				}
				JOINT LeftShoulder
				{
					OFFSET 0.000000 0.000000 0.000000
					CHANNELS 3 Zrotation Yrotation Xrotation
					JOINT LeftArm
					{
						OFFSET 3.362410 1.200890 -0.311210
						CHANNELS 3 Zrotation Yrotation Xrotation
						JOINT LeftForeArm
						{
							OFFSET 4.983000 -0.000000 -0.000000
							CHANNELS 3 Zrotation Yrotation Xrotation
							JOINT LeftHand
							{
								OFFSET 3.483560 -0.000000 -0.000000
								CHANNELS 3 Zrotation Yrotation Xrotation
								JOINT LeftFingerBase
								{
									OFFSET 0.000000 0.000000 0.000000
									CHANNELS 3 Zrotation Yrotation Xrotation
									JOINT LeftHandIndex1
									{
										OFFSET 0.715260 -0.000000 -0.000000
										CHANNELS 3 Zrotation Yrotation Xrotation
										End Site
										{
											OFFSET 0.000000 0.000000 0.000000
										}
									}
								}
								JOINT LThumb
								{
									OFFSET 0.000000 0.000000 0.000000
									CHANNELS 3 Zrotation Yrotation Xrotation
									End Site
									{
										OFFSET 0.000000 0.000000 0.000000
									}
								}
							}
						}
					}
				}
				JOINT RightShoulder
				{
					OFFSET 0.000000 0.000000 0.000000
					CHANNELS 3 Zrotation Yrotation Xrotation
					JOINT RightArm
					{
						OFFSET -3.136600 1.374050 -0.404650
						CHANNELS 3 Zrotation Yrotation Xrotation
						JOINT RightForeArm
						{
							OFFSET -5.241900 -0.000000 -0.000000
							CHANNELS 3 Zrotation Yrotation Xrotation
							JOINT RightHand
							{
								OFFSET -3.444170 -0.000000 -0.000000
								CHANNELS 3 Zrotation Yrotation Xrotation
								JOINT RightFingerBase
								{
									OFFSET 0.000000 0.000000 0.000000
									CHANNELS 3 Zrotation Yrotation Xrotation
									JOINT RightHandIndex1
									{
										OFFSET -0.622530 -0.000000 -0.000000
										CHANNELS 3 Zrotation Yrotation Xrotation
										End Site
										{
											OFFSET 0.000000 0.000000 0.000000
										}
									}
								}
								JOINT RThumb
								{
									OFFSET 0.000000 0.000000 0.000000
									CHANNELS 3 Zrotation Yrotation Xrotation
									End Site
									{
										OFFSET 0.000000 0.000000 0.000000
									}
								}
							}
						}
					}
				}
			}
		}
	}
}
MOTION
Frames: 10
Frame Time: 0.008333
-0.932900 18.241096 6.884600 -3.908261 -3.306613 2.297986 0.018011 3.604833 3.041302 -8.695335 -6.253951 -6.260212 1.628295 8.772897 27.465943 -0.081862 4.295692 -13.691988 9.087600 -16.863800 -56.392700 -4.013685 -3.856556 1.548812 21.380701 0.454077 9.070637 0.591131 0.939064 1.773354 0.477000 -5.728667 -12.437774 -0.688100 5.303300 -14.775800 8.789317 1.195602 2.031630 -10.889206 1.835212 12.350001 -1.173281 0.974089 -15.771499 -0.473536 -2.040038 -14.820697 2.512241 -2.524218 21.454375 0.337500 -0.957300 6.619000 3.688867 -7.024236 0.608316 -89.004647 -3.965182 46.305621 138.926274 -45.344582 -100.544663 0.142362 0.378804 23.726732 -41.684796 1.169571 -0.560300 -7.125000 0.000000 0.000000 -43.774000 23.543600 34.174400 -3.553377 7.628106 0.373969 85.963517 7.718694 42.127042 -141.156803 40.357209 -102.823074 0.103684 1.635542 23.365550 21.661475 -45.423418 -16.593800 7.125000 0.000000 0.000000 74.326200 -61.933100 -41.820000 
-0.933785 18.241490 6.872594 -3.697093 -3.540942 1.865812 -0.159236 3.682026 3.248628 -8.710489 -5.918839 -6.151713 1.642324 8.766110 27.483238 -0.084063 4.269449 -13.585169 9.122500 -16.885900 -56.512800 -4.174761 -3.891754 1.681583 21.291174 0.579811 9.367768 0.593572 0.967843 1.783069 0.478214 -5.721096 -12.459099 -0.699900 5.347600 -14.902700 9.388924 1.141861 1.367733 -12.671626 1.938931 14.161167 -0.710204 0.918507 -15.929681 0.162144 -1.916341 -14.356271 2.604613 -2.429395 22.543743 0.313700 -0.861400 6.848000 4.141972 -6.939731 0.473729 -88.725691 -4.130533 45.893786 139.065004 -45.227107 -100.660074 0.151779 0.380051 23.695116 -41.859585 1.411650 -0.773400 -7.125000 0.000000 0.000000 -43.897700 23.674100 34.164400 -3.640977 7.485733 0.173316 85.107547 9.468149 43.195499 -141.972414 39.866968 -103.452048 0.116819 1.693470 23.202115 20.671267 -45.358530 -15.826300 7.125000 0.000000 0.000000 73.608700 -62.214100 -41.607800 
-0.937427 18.240013 6.858913 -3.471986 -3.818495 1.327330 -0.325745 3.774565 3.481848 -8.739822 -5.517715 -5.960187 1.660476 8.745389 27.489563 -0.072637 4.167788 -13.410326 9.158100 -16.908400 -56.635400 -4.322893 -3.936256 1.843976 21.177343 0.732762 9.753011 0.595520 0.999082 1.793329 0.479588 -5.707555 -12.467951 -0.722300 5.430700 -15.141300 9.860154 1.099900 0.642026 -14.370620 2.115428 16.263318 -0.257284 0.867152 -16.049234 0.837583 -1.846330 -13.589683 2.858155 -2.435656 23.160027 0.314400 -0.805900 6.974500 4.640495 -6.829639 0.300108 -88.437955 -4.390271 45.395913 139.214998 -45.097327 -100.784176 0.163707 0.383877 23.665712 -41.978580 1.374712 -0.732500 -7.125000 0.000000 0.000000 -43.897500 23.556900 34.378200 -3.792778 7.334192 -0.067589 84.260140 11.334778 44.224428 -142.863431 39.299752 -104.120632 0.114711 1.777525 23.208677 20.361857 -45.405063 -15.640800 7.125000 0.000000 0.000000 73.598000 -62.341100 -41.791900 
-0.943627 18.237947 6.843659 -3.193025 -4.117896 0.713904 -0.463692 3.870887 3.711448 -8.849272 -5.058614 -5.695562 1.680394 8.712817 27.490195 -0.050638 4.023177 -13.235850 9.189000 -16.927800 -56.741500 -4.439876 -3.986384 2.015764 20.972553 0.904588 10.196870 0.596380 1.028456 1.802715 0.486336 -5.707264 -12.439662 -0.750300 5.532800 -15.434600 10.071204 1.059041 -0.029129 -15.805533 2.325529 18.410453 0.159496 0.820009 -16.102892 1.302256 -1.825321 -12.589614 3.453471 -2.527801 23.453337 0.406500 -0.773300 7.030400 5.140403 -6.692171 0.111732 -88.207864 -4.696786 44.821326 139.382429 -44.954643 -100.924843 0.175774 0.389440 23.669751 -42.020567 1.254593 -0.613100 -7.125000 0.000000 0.000000 -43.851200 23.398500 34.581200 -3.974042 7.184101 -0.314497 83.328753 13.234243 45.228418 -143.747109 38.711284 -104.786167 0.126070 1.858258 23.301477 19.804772 -45.386300 -15.240100 7.125000 0.000000 0.000000 73.302500 -62.518300 -41.796700 
-0.949827 18.234600 6.824271 -2.893082 -4.418710 0.004015 -0.589815 3.964632 3.915454 -8.991804 -4.595501 -5.310069 1.698193 8.679440 27.490357 -0.025591 3.888441 -13.133776 9.197800 -16.933300 -56.771700 -4.549969 -4.029599 2.158612 20.737352 1.047766 10.748621 0.596383 1.055708 1.812503 0.494691 -5.713810 -12.403016 -0.761900 5.574400 -15.554400 10.219581 1.005967 -0.455394 -17.200316 2.570008 20.320768 0.491979 0.765544 -16.095450 1.592200 -1.916042 -11.469156 4.386151 -2.791259 23.708631 0.577900 -0.794300 7.080000 5.646128 -6.539513 -0.054706 -88.005188 -4.970876 44.254269 139.579840 -44.789489 -101.094256 0.186535 0.396518 23.636554 -41.922276 1.159086 -0.513100 -7.125000 0.000000 0.000000 -43.793600 23.341300 34.577600 -4.129355 7.042741 -0.534627 82.376027 15.130764 46.108356 -144.506249 38.191635 -105.359289 0.148610 1.922118 23.228319 18.901398 -45.370725 -14.555900 7.125000 0.000000 0.000000 72.742500 -62.804200 -41.728500 
-0.954059 18.230172 6.797107 -2.613507 -4.673222 -0.697555 -0.716093 4.041641 4.060608 -9.116403 -4.209546 -4.875727 1.711510 8.661256 27.498129 -0.001658 3.779097 -13.083847 9.171800 -16.917000 -56.682400 -4.671501 -4.049212 2.229183 20.543538 1.124378 11.325193 0.596269 1.078676 1.822573 0.500672 -5.726994 -12.396665 -0.750800 5.534500 -15.439500 10.471452 0.917267 -0.452743 -18.714612 2.803350 21.573864 0.713347 0.687918 -16.021123 1.816839 -2.142058 -10.156934 5.569454 -3.249293 23.929914 0.799900 -0.883100 7.101500 6.126497 -6.401000 -0.161984 -87.744143 -5.065208 43.750976 139.806731 -44.601648 -101.293945 0.196046 0.405224 23.509690 -41.701431 1.146050 -0.485300 -7.125000 0.000000 0.000000 -43.749000 23.430100 34.333800 -4.204732 6.932715 -0.694414 81.518858 16.856235 46.868548 -145.168709 37.724134 -105.860591 0.171847 1.972443 22.991632 17.870998 -45.334268 -13.761600 7.125000 0.000000 0.000000 72.032900 -63.120500 -41.571700 
-0.958587 18.226727 6.761874 -2.379139 -4.840870 -1.323094 -0.809441 4.107986 4.166355 -9.219830 -3.913408 -4.520606 1.725758 8.660050 27.535705 -0.003397 3.753789 -12.985217 9.172100 -16.917200 -56.683500 -4.765942 -4.053020 2.268623 20.384232 1.134022 11.811262 0.596219 1.097430 1.831560 0.513353 -5.780498 -12.392768 -0.752300 5.539900 -15.455200 10.602187 0.759954 -0.146353 -19.999506 2.944775 22.457431 0.872362 0.578737 -15.976923 2.089382 -2.422881 -8.918730 6.683143 -3.759764 24.116399 1.009300 -1.001600 7.110600 6.519863 -6.261146 -0.235712 -87.539105 -5.125765 43.206958 140.021283 -44.430312 -101.484291 0.204907 0.410659 23.400960 -41.636104 1.186156 -0.510400 -7.125000 0.000000 0.000000 -43.751300 23.489500 34.230500 -4.251486 6.842288 -0.805696 80.643620 18.391442 47.574080 -145.833019 37.249845 -106.355263 0.188147 2.021110 22.701524 16.951143 -45.247433 -13.046600 7.125000 0.000000 0.000000 71.307800 -63.381000 -41.318900 
-0.962819 18.224463 6.721719 -2.229024 -5.003091 -1.917267 -0.843936 4.175197 4.260132 -9.293550 -3.670899 -4.221743 1.745840 8.667283 27.608194 -0.026557 3.792483 -12.836240 9.207200 -16.939200 -56.803800 -4.803640 -4.052104 2.318855 20.262935 1.161929 12.239736 0.596616 1.112781 1.838209 0.540385 -5.900053 -12.360439 -0.777700 5.630600 -15.716400 10.465904 0.541149 0.287650 -20.741569 2.975694 23.326097 0.973018 0.446402 -16.029226 2.144434 -2.712763 -7.979447 7.775519 -4.278535 24.457175 1.250200 -1.131200 7.173900 6.807463 -6.114479 -0.303189 -87.517815 -5.196366 42.517478 140.242613 -44.269863 -101.674645 0.214309 0.413018 23.397909 -41.726904 1.083857 -0.413000 -7.125000 0.000000 0.000000 -43.722800 23.329200 34.467800 -4.301986 6.751207 -0.888198 79.657274 19.776822 48.302754 -146.526176 36.767301 -106.840517 0.176925 2.084437 22.202553 16.478486 -45.306675 -12.721800 7.125000 0.000000 0.000000 71.175300 -63.566100 -41.472500 
-0.963704 18.222790 6.681565 -2.082404 -5.204291 -2.412285 -0.871303 4.228478 4.325271 -9.396522 -3.465052 -3.988636 1.766601 8.684902 27.697138 -0.040194 3.809463 -12.727000 9.218100 -16.946000 -56.841400 -4.834345 -4.043409 2.344913 20.135727 1.256808 12.586227 0.597067 1.124374 1.842569 0.572063 -6.030530 -12.293699 -0.796500 5.696500 -15.906300 10.285396 0.342809 0.817266 -21.398937 3.002359 23.946238 1.038611 0.331604 -16.085646 1.893293 -3.076146 -7.222968 9.153698 -4.944279 24.898346 1.591400 -1.311500 7.281600 7.061967 -5.986184 -0.345599 -87.511852 -5.138394 41.900631 140.479091 -44.102100 -101.874648 0.223831 0.416050 23.396211 -41.778465 0.917624 -0.256800 -7.125000 0.000000 0.000000 -43.662600 23.126600 34.721100 -4.308634 6.673701 -0.935226 78.606490 20.976041 48.892512 -147.186155 36.316892 -107.273753 0.129807 2.156879 21.342316 16.436065 -45.560220 -12.779100 7.125000 0.000000 0.000000 71.702100 -63.697400 -42.123600 
-0.965279 18.221609 6.642395 -1.859450 -5.365017 -2.752535 -0.935340 4.259346 4.351828 -9.545818 -3.281500 -3.883092 1.782229 8.716268 27.786333 -0.049017 3.819659 -12.636000 9.228600 -16.952600 -56.877200 -4.901814 -4.023688 2.320062 19.976921 1.338790 12.807648 0.597146 1.133723 1.846415 0.601071 -6.142939 -12.213965 -0.815700 5.763100 -16.098600 10.195820 0.176022 1.481420 -22.461391 3.079011 24.159909 1.101686 0.235978 -16.055434 1.751130 -3.564664 -6.602130 10.726632 -5.823402 25.191457 1.960800 -1.569400 7.385900 7.346032 -5.885916 -0.347581 -87.304020 -5.013131 41.440780 140.744016 -43.908788 -102.100111 0.234224 0.420224 23.368546 -41.784547 0.754773 -0.101600 -7.125000 0.000000 0.000000 -43.596700 22.950200 34.914300 -4.270577 6.633452 -0.945287 77.745634 21.897988 49.291429 -147.737601 35.918991 -107.636925 0.070190 2.199818 20.530282 16.597087 -45.486594 -12.922700 7.125000 0.000000 0.000000 71.749600 -63.613200 -42.043400 
